<?xml version="1.0" encoding="utf-8"?>
<!-- Generator: Adobe Illustrator 20.1.0, SVG Export Plug-In . SVG Version: 6.00 Build 0)  -->
<svg version="1.1" id="Layer_1" xmlns="http://www.w3.org/2000/svg" xmlns:xlink="http://www.w3.org/1999/xlink" x="0px" y="0px"
	 viewBox="0 0 26.2 25.9" style="enable-background:new 0 0 26.2 25.9;" xml:space="preserve">
<style type="text/css">
	.st0{fill-rule:evenodd;clip-rule:evenodd;fill:#434F61;}
	.st1{fill:#434F61;}
</style>
<g>
	<g>
		<path class="st0" d="M10.5,0.4H3.1c-1.3,0-2.3,1-2.3,2.3V10c0,1.3,1,2.3,2.3,2.3h7.3c1.3,0,2.3-1,2.3-2.3V2.7
			C12.8,1.4,11.7,0.4,10.5,0.4z M10.8,10c0,0.2-0.1,0.3-0.3,0.3H3.1c-0.2,0-0.3-0.1-0.3-0.3V2.7c0-0.2,0.1-0.3,0.3-0.3h7.3
			c0.2,0,0.3,0.1,0.3,0.3V10z"/>
	</g>
</g>
<path class="st1" d="M4.8,21.3h2.9l-1.3,2c-0.4,0.4-0.4,1.1,0,1.4c0.4,0.4,1,0.4,1.4,0l3-3.7c0,0,0.1-0.1,0.1-0.2c0,0,0-0.1,0-0.1
	c0,0,0-0.1,0-0.1c0,0,0-0.1,0-0.1c0,0,0-0.1,0-0.1c0-0.1,0-0.3,0-0.4c0,0,0-0.1,0-0.1c0,0,0-0.1,0-0.1c0,0,0-0.1,0-0.1
	c0,0,0-0.1,0-0.1c0-0.1-0.1-0.1-0.1-0.2l-3-3.7c-0.4-0.4-1-0.4-1.4,0c-0.2,0.2-0.3,0.4-0.3,0.7c0,0.3,0.1,0.5,0.3,0.7l1.3,2H4.8H4
	c-0.7,0-1.2-0.8-1.2-1.5v-3.5h-2v3.5c0,0.9,0.4,1.9,1,2.6c0,0.1,0,0,0,0C2.7,21.3,4.2,21.3,4.8,21.3"/>
<path class="st0" d="M19.8,13.4c-3.3,0-6,2.7-6,6c0,3.3,2.7,6,6,6c3.3,0,6-2.7,6-6C25.8,16.1,23.1,13.4,19.8,13.4z M19.8,23.5
	c-2.2,0-4.1-1.8-4.1-4.1c0-2.2,1.8-4.1,4.1-4.1c2.2,0,4.1,1.8,4.1,4.1C23.9,21.7,22.1,23.5,19.8,23.5z"/>
<path class="st1" d="M21.8,4.4h-2.9l1.3-2c0.4-0.4,0.4-1.1,0-1.4c-0.4-0.4-1-0.4-1.4,0l-3,3.7c0,0-0.1,0.1-0.1,0.2c0,0,0,0.1,0,0.1
	c0,0,0,0.1,0,0.1c0,0,0,0.1,0,0.1c0,0,0,0.1,0,0.1c0,0.1,0,0.3,0,0.4c0,0,0,0.1,0,0.1c0,0,0,0.1,0,0.1c0,0,0,0.1,0,0.1
	c0,0,0,0.1,0,0.1c0,0.1,0.1,0.1,0.1,0.2l3,3.7c0.4,0.4,1,0.4,1.4,0c0.2-0.2,0.3-0.4,0.3-0.7c0-0.3-0.1-0.5-0.3-0.7l-1.3-2h2.9h0.8
	c0.7,0,1.2,0.8,1.2,1.5v3.5h2V7.8c0-0.9-0.4-1.9-1-2.6c0-0.1,0,0,0,0C23.9,4.4,22.3,4.4,21.8,4.4"/>
</svg>
